<?xml version="1.0" encoding="UTF-8" ?>
<svg
  width="172px"
  height="48px"
  viewBox="0 0 172 48"
  version="1.1"
  xmlns="http://www.w3.org/2000/svg"
  xmlns:xlink="http://www.w3.org/1999/xlink"
>
  <!-- Generator: Sketch 64 (93537) - https://sketch.com -->
  <title>eUnion Logo</title>
  <desc>Created with VSCode</desc>
  <g
    id="eUnion Logo"
    stroke="none"
    stroke-width="1"
    fill="none"
    fill-rule="evenodd"
  >
    <g id="EU-emblem_standard">
      <g id="EU/EU-emblem/flag/flag-positive">
        <g id="EU_flag">
          <rect
            id="🌈-flag"
            fill="#003399"
            fill-rule="nonzero"
            x="0"
            y="0"
            width="48"
            height="48"
          />
          <g transform="translate(-11, 0)">
            <path
              d="M35.06,8.91 L33.54,7.8 L35.42,7.8 L36,6 L36.58,7.8 L38.46,7.8 L36.94,8.91 L37.52,10.72 L36,9.6 L34.48,10.72 L35.06,8.91 L35.06,8.91 Z M36.94,40.2 L37.52,42 L36,40.89 L34.48,42 L35.06,40.2 L33.54,39.09 L35.42,39.09 L36,37.28 L36.58,39.09 L38.46,39.09 L36.94,40.2 Z M20.46,25.2 L18.94,26.32 L19.52,24.52 L18,23.44 L19.88,23.44 L20.46,21.64 L21.04,23.44 L22.93,23.44 L21.4,24.56 L21.98,26.36 L20.46,25.24 L20.46,25.2 Z M29.17,11 L29.75,12.8 L28.23,11.7 L26.71,12.81 L27.29,11.01 L25.77,9.9 L27.65,9.9 L28.23,8.1 L28.81,9.9 L30.69,9.9 L29.17,11 Z M22,15.62 L22.58,13.82 L23.17,15.62 L25,15.62 L23.48,16.74 L24.06,18.54 L22.53,17.42 L21,18.54 L21.58,16.74 L20.06,15.62 L22,15.62 Z M20.08,31.26 L22,31.26 L22.58,29.46 L23.17,31.26 L25,31.26 L23.48,32.38 L24.06,34.18 L22.53,33.07 L21,34.18 L21.58,32.38 L20.06,31.26 L20.08,31.26 Z M27.29,38.1 L25.77,37 L27.65,37 L28.23,35.2 L28.81,37 L30.69,37 L29.17,38.1 L29.75,39.9 L28.23,38.79 L26.71,39.9 L27.29,38.1 Z M52.48,24.56 L53.06,26.36 L51.54,25.24 L50,26.36 L50.58,24.56 L49.05,23.44 L51,23.44 L51.58,21.64 L52.16,23.44 L54,23.44 L52.48,24.56 Z M42.83,11 L41.31,9.9 L43.19,9.9 L43.77,8.1 L44.35,9.9 L46.23,9.9 L44.71,11 L45.29,12.8 L43.77,11.7 L42.25,12.81 L42.83,11.01 L42.83,11 Z M48.83,15.61 L49.42,13.81 L50,15.61 L51.88,15.61 L50.4,16.74 L50.98,18.54 L49.46,17.42 L47.93,18.54 L48.51,16.74 L47,15.62 L48.83,15.61 Z M50,31.26 L51.88,31.26 L50.4,32.38 L50.98,34.18 L49.46,33.07 L47.93,34.18 L48.51,32.38 L47,31.26 L48.88,31.26 L49.47,29.46 L50.05,31.26 L50,31.26 Z M46.23,37 L44.71,38.1 L45.29,39.9 L43.77,38.79 L42.25,39.9 L42.83,38.1 L41.31,37 L43.19,37 L43.77,35.2 L44.35,37 L46.23,37 Z"
              id="🌈-stars"
              fill="#FFCC00"
              fill-rule="nonzero"
            />
          </g>
        </g>
      </g>
      <g
        id="🌈-Union"
        transform="translate(66.000000, 17.000000)"
        fill="#515560"
        fill-rule="nonzero"
      >
        <path
          d="M1,0.69 L3.89,0.69 L3.89,8.44 C3.8678325,9.24161441 3.90459816,10.0437742 4,10.84 C4.11178312,11.401504 4.42470326,11.9028874 4.88,12.25 C5.44212954,12.6295873 6.11264827,12.8156474 6.79,12.78 C7.44810314,12.8222963 8.10180702,12.6465695 8.65,12.28 C9.05776827,11.9646946 9.33251362,11.507975 9.42,11 C9.51798477,10.1939055 9.55808745,9.38182642 9.54,8.57 L9.54,0.69 L12.44,0.69 L12.44,8.21 C12.477931,9.42824013 12.3975543,10.6472864 12.2,11.85 C12.0666927,12.5119183 11.7711935,13.130405 11.34,13.65 C10.8769401,14.1679576 10.2978054,14.568897 9.65,14.82 C8.76813501,15.1334363 7.8354524,15.2792739 6.9,15.25 C5.84244573,15.3006748 4.78535167,15.1409211 3.79,14.78 C3.14209323,14.5060045 2.56690093,14.0848815 2.11,13.55 C1.72897377,13.0994058 1.4523631,12.5700891 1.3,12 C1.06994935,10.7907922 0.969381804,9.5605159 1,8.33 L1,0.69 Z"
          id="🌈-U"
        />
        <path
          d="M24.3,15 L21.55,15 L21.55,9.7 C21.5855773,8.97238442 21.5284521,8.24319853 21.38,7.53 C21.2731042,7.22114019 21.0741851,6.95242486 20.81,6.76 C20.5131439,6.56754971 20.1633772,6.47311271 19.81,6.49 C19.3533771,6.48525986 18.906401,6.62144789 18.53,6.88 C18.1721289,7.12148884 17.9020074,7.4722961 17.76,7.88 C17.5835877,8.66032644 17.5129543,9.46083903 17.55,10.26 L17.55,15 L14.84,15 L14.84,4.63 L17.39,4.63 L17.39,6.16 C18.175208,5.05121788 19.451354,4.39448775 20.81,4.4 C21.3803442,4.39246359 21.945904,4.50489415 22.47,4.73 C22.9143712,4.90527174 23.3067253,5.19093308 23.61,5.56 C23.8619724,5.90392796 24.0422117,6.29501327 24.14,6.71 C24.2649634,7.3183654 24.3186584,7.93921326 24.3,8.56 L24.3,15 Z"
          id="🌈-n"
        />
        <path
          d="M26.58,3.23 L26.58,0.69 L29.32,0.69 L29.32,3.23 L26.58,3.23 Z M26.58,15.01 L26.58,4.63 L29.32,4.63 L29.32,15 L26.58,15.01 Z"
          id="🌈-i"
        />
        <path
          d="M31,9.67 C31.0049073,8.74731313 31.2385465,7.84024316 31.68,7.03 C32.091107,6.18277843 32.7549603,5.48398545 33.58,5.03 C34.4304055,4.58177682 35.3787392,4.35156536 36.34,4.36 C37.7837214,4.309447 39.1829673,4.86407035 40.2,5.89 C41.20477,6.91872288 41.7464925,8.31275543 41.7,9.75 C41.7478306,11.2012282 41.2026306,12.6093607 40.19,13.65 C39.1849397,14.6775563 37.7968269,15.2393251 36.36,15.2 C35.4156003,15.2037053 34.483663,14.9844259 33.64,14.56 C32.7872002,14.1618112 32.0857443,13.4989353 31.64,12.67 C31.1823592,11.7381398 30.9624878,10.7074928 31,9.67 L31,9.67 Z M33.81,9.82 C33.7526345,10.6715533 34.016685,11.5136601 34.55,12.18 C35.0038579,12.6995884 35.6601021,12.9977087 36.35,12.9977087 C37.0398979,12.9977087 37.6961421,12.6995884 38.15,12.18 C38.6819239,11.5056213 38.9423233,10.6566478 38.88,9.8 C38.9380359,8.95613492 38.6775584,8.12117969 38.15,7.46 C37.6961421,6.94041163 37.0398979,6.64229132 36.35,6.64229132 C35.6601021,6.64229132 35.0038579,6.94041163 34.55,7.46 C34.016685,8.12633988 33.7526345,8.96844673 33.81,9.82 L33.81,9.82 Z"
          id="🌈-o"
        />
        <path
          d="M52.79,15 L50,15 L50,9.7 C50.0355773,8.97238442 49.9784521,8.24319853 49.83,7.53 C49.7231042,7.22114019 49.5241851,6.95242486 49.26,6.76 C48.9631439,6.56754971 48.6133772,6.47311271 48.26,6.49 C47.8033771,6.48525986 47.356401,6.62144789 46.98,6.88 C46.6221289,7.12148884 46.3520074,7.4722961 46.21,7.88 C46.0335877,8.66032644 45.9629543,9.46083903 46,10.26 L46,15 L43.25,15 L43.25,4.63 L45.8,4.63 L45.8,6.16 C46.585208,5.05121788 47.861354,4.39448775 49.22,4.4 C49.7903442,4.39246359 50.355904,4.50489415 50.88,4.73 C51.3243712,4.90527174 51.7167253,5.19093308 52.02,5.56 C52.271073,5.90575398 52.4543094,6.2959795 52.56,6.71 C52.6758254,7.31955361 52.7261115,7.9397488 52.71,8.56 L52.79,15 Z"
          id="🌈-n"
        />
      </g>
      <g
        id="🌈-European"
        transform="translate(0.000000, 17.700000)"
        fill="#515560"
        fill-rule="nonzero"
      >
        <path
          d="M62.37,11 L65.1,11.45 C64.8130968,12.3748843 64.2297486,13.1796238 63.44,13.74 C62.5951369,14.2930105 61.599001,14.5691324 60.59,14.53 C59.0447651,14.6448985 57.5441538,13.980878 56.59,12.76 C55.8843274,11.7071641 55.5339205,10.4562118 55.59,9.19 C55.5135026,7.7333052 55.9964261,6.30242072 56.94,5.19 C57.8107713,4.23131045 59.0552666,3.69847669 60.35,3.73 C61.7334648,3.66127261 63.0742438,4.21962444 64,5.25 C64.9902179,6.59828149 65.4461916,8.26543557 65.28,9.93 L58.41,9.93 C58.3851457,10.6235106 58.620568,11.3012415 59.07,11.83 C59.4738823,12.2740211 60.0498887,12.5219226 60.65,12.51 C61.0424109,12.5196203 61.4265461,12.3962741 61.74,12.16 C62.0632712,11.8465439 62.2830789,11.4418186 62.37,11 L62.37,11 Z M62.53,8.22 C62.5559403,7.56051029 62.3348519,6.91507469 61.91,6.41 C61.5470264,6.00989135 61.0301884,5.78422968 60.49,5.79 C59.9218585,5.77673139 59.3767464,6.01453197 59,6.44 C58.5897686,6.93883036 58.3858393,7.57566205 58.43,8.22 L62.53,8.22 Z"
          id="🌈-e"
        />
      </g>
    </g>
  </g>
</svg>
